<svg xmlns="http://www.w3.org/2000/svg" xmlns:xlink="http://www.w3.org/1999/xlink" width="40" zoomAndPan="magnify" viewBox="0 0 30 30.000001" height="40" preserveAspectRatio="xMidYMid meet" version="1.0"><defs><clipPath id="id1"><path d="M 4.871094 4.941406 L 25.195312 4.941406 L 25.195312 23.8125 L 4.871094 23.8125 Z M 4.871094 4.941406 " clip-rule="nonzero"/></clipPath></defs><g clip-path="url(#id1)"><path fill="#000000" d="M 11.765625 4.949219 C 11.734375 4.949219 11.703125 4.949219 11.675781 4.957031 C 11.371094 5.003906 11.214844 5.3125 10.992188 5.601562 C 10.738281 8.984375 10.382812 12.082031 10.128906 15.46875 C 11.1875 15.390625 12.640625 15.40625 14.128906 15.386719 C 15.753906 15.363281 17.332031 15.253906 18.105469 14.980469 C 19.703125 14.414062 20.933594 12.976562 21.960938 10.839844 C 18.800781 8.953125 15.398438 6.707031 12.484375 5.175781 C 12.230469 5.070312 11.976562 4.945312 11.765625 4.949219 Z M 10.390625 6.332031 C 8.5 9.839844 6.828125 12.710938 4.921875 16.28125 C 4.886719 17.238281 5.078125 17.789062 5.324219 18.140625 C 5.570312 18.492188 5.796875 18.585938 6.128906 18.5625 C 6.605469 18.40625 7.203125 17.988281 7.824219 17.460938 C 8.0625 17.257812 9.566406 15.972656 9.695312 15.6875 C 9.933594 12.515625 10.152344 9.523438 10.390625 6.332031 Z M 15.785156 6.5 C 18.082031 7.902344 20.28125 9.308594 22.285156 10.472656 C 22.882812 10.820312 24.015625 11.234375 24.875 11.484375 C 24.058594 10.671875 23.125 9.972656 22.089844 9.472656 Z M 14.320312 7.808594 C 14.550781 7.800781 14.78125 7.867188 15.007812 7.996094 C 15.464844 8.257812 15.886719 8.78125 16.277344 9.566406 C 16.644531 10.300781 16.78125 10.980469 16.691406 11.605469 C 16.601562 12.226562 16.300781 12.695312 15.78125 13.007812 C 15.640625 13.09375 15.496094 13.164062 15.335938 13.21875 L 14.820312 13.34375 L 14.535156 12.773438 C 14.714844 12.761719 14.882812 12.734375 15.042969 12.6875 C 15.207031 12.640625 15.355469 12.574219 15.492188 12.492188 C 15.859375 12.269531 16.070312 11.960938 16.125 11.566406 C 16.175781 11.167969 16.078125 10.679688 15.820312 10.089844 C 15.804688 10.335938 15.738281 10.550781 15.621094 10.746094 C 15.507812 10.941406 15.351562 11.097656 15.152344 11.214844 C 14.742188 11.464844 14.347656 11.523438 13.96875 11.386719 C 13.589844 11.246094 13.277344 10.933594 13.035156 10.445312 C 12.796875 9.964844 12.730469 9.507812 12.835938 9.066406 C 12.941406 8.628906 13.203125 8.285156 13.617188 8.03125 C 13.851562 7.890625 14.085938 7.8125 14.320312 7.808594 Z M 14.265625 8.402344 C 14.132812 8.40625 14 8.449219 13.863281 8.53125 C 13.613281 8.683594 13.464844 8.898438 13.414062 9.183594 C 13.367188 9.464844 13.425781 9.773438 13.59375 10.105469 C 13.761719 10.445312 13.964844 10.664062 14.207031 10.769531 L 14.945312 10.703125 C 15.191406 10.550781 15.339844 10.335938 15.386719 10.054688 C 15.4375 9.773438 15.378906 9.464844 15.214844 9.128906 C 15.046875 8.792969 14.84375 8.570312 14.601562 8.46875 C 14.507812 8.425781 14.417969 8.40625 14.324219 8.402344 C 14.304688 8.402344 14.285156 8.402344 14.265625 8.402344 Z M 9.359375 10.167969 C 9.40625 10.164062 9.445312 10.179688 9.476562 10.207031 C 9.570312 10.296875 9.566406 10.53125 9.453125 10.914062 C 9.375 11.179688 9.261719 11.441406 9.121094 11.695312 C 8.980469 11.949219 8.824219 12.175781 8.644531 12.375 C 8.800781 12.300781 8.898438 12.324219 8.933594 12.453125 C 8.96875 12.582031 8.945312 12.800781 8.851562 13.109375 C 8.710938 13.582031 8.511719 14.023438 8.25 14.433594 C 7.988281 14.84375 7.691406 15.1875 7.351562 15.46875 C 7.238281 15.5625 7.125 15.636719 7.015625 15.695312 C 6.910156 15.757812 6.800781 15.800781 6.695312 15.824219 L 6.882812 15.199219 C 6.953125 15.21875 7.039062 15.210938 7.144531 15.164062 C 7.25 15.117188 7.371094 15.039062 7.503906 14.929688 C 7.730469 14.742188 7.929688 14.519531 8.097656 14.257812 C 8.265625 14 8.394531 13.714844 8.484375 13.410156 C 8.570312 13.125 8.578125 12.953125 8.511719 12.886719 C 8.449219 12.816406 8.316406 12.863281 8.117188 13.027344 L 7.800781 13.289062 L 7.957031 12.753906 L 8.289062 12.484375 C 8.46875 12.335938 8.628906 12.160156 8.761719 11.953125 C 8.894531 11.746094 8.996094 11.523438 9.066406 11.28125 C 9.136719 11.035156 9.144531 10.886719 9.082031 10.839844 C 9.023438 10.785156 8.902344 10.835938 8.71875 10.988281 C 8.621094 11.070312 8.503906 11.175781 8.378906 11.308594 C 8.25 11.441406 8.109375 11.605469 7.945312 11.800781 L 8.117188 11.222656 C 8.277344 11.039062 8.421875 10.882812 8.554688 10.75 C 8.6875 10.613281 8.804688 10.5 8.914062 10.414062 C 9.105469 10.257812 9.253906 10.175781 9.359375 10.167969 Z M 22.464844 11.089844 C 21.449219 13.199219 20.152344 14.804688 18.496094 15.472656 L 18.746094 23.503906 C 19.179688 23.265625 19.261719 23.125 19.453125 22.675781 L 25.105469 12.488281 C 25.183594 12.289062 25.191406 12.164062 25.066406 12.078125 C 24.136719 11.824219 23.335938 11.511719 22.464844 11.089844 Z M 18.195312 12.496094 L 18.394531 12.890625 L 15.117188 14.472656 L 14.917969 14.078125 Z M 23.003906 13.976562 L 22.78125 14.554688 C 22.53125 14.882812 22.191406 15.324219 21.765625 15.878906 C 21.339844 16.433594 21.066406 16.789062 20.953125 16.945312 C 20.734375 17.242188 20.566406 17.484375 20.453125 17.675781 C 20.335938 17.867188 20.246094 18.042969 20.179688 18.210938 C 20.074219 18.480469 20.042969 18.679688 20.078125 18.808594 C 20.117188 18.9375 20.21875 18.964844 20.386719 18.898438 C 20.507812 18.851562 20.644531 18.765625 20.808594 18.636719 C 20.96875 18.507812 21.15625 18.339844 21.363281 18.125 L 21.089844 18.820312 C 20.894531 18.992188 20.71875 19.132812 20.566406 19.242188 C 20.410156 19.351562 20.277344 19.429688 20.167969 19.472656 C 19.878906 19.589844 19.699219 19.550781 19.628906 19.355469 C 19.558594 19.164062 19.609375 18.847656 19.78125 18.40625 C 19.863281 18.199219 19.964844 17.992188 20.082031 17.785156 C 20.199219 17.582031 20.363281 17.332031 20.574219 17.03125 C 20.632812 16.953125 20.804688 16.722656 21.097656 16.339844 L 22.324219 14.738281 L 21 15.269531 L 21.226562 14.691406 Z M 18.046875 15.632812 C 17.132812 15.898438 15.664062 15.957031 14.132812 15.976562 C 12.835938 15.988281 11.058594 15.890625 10.011719 16.074219 C 9.398438 16.652344 8.742188 17.273438 8.097656 17.820312 C 7.523438 18.292969 6.9375 18.78125 6.210938 19.007812 C 6.125 19.011719 6.109375 19.003906 6.019531 18.992188 C 6.289062 19.230469 6.570312 19.375 6.875 19.542969 L 17.1875 23.601562 C 17.242188 23.609375 17.8125 23.816406 18.28125 23.601562 L 18.046875 15.628906 Z M 13.09375 17.871094 C 13.140625 17.867188 13.1875 17.867188 13.230469 17.871094 C 13.28125 17.871094 13.332031 17.875 13.382812 17.882812 C 13.789062 17.921875 14.113281 18.074219 14.355469 18.339844 C 14.527344 18.527344 14.597656 18.71875 14.5625 18.910156 C 14.53125 19.105469 14.402344 19.28125 14.171875 19.441406 C 14.523438 19.363281 14.855469 19.363281 15.15625 19.4375 C 15.460938 19.511719 15.710938 19.65625 15.902344 19.863281 C 16.195312 20.183594 16.277344 20.484375 16.15625 20.769531 C 16.03125 21.058594 15.714844 21.308594 15.195312 21.523438 C 14.675781 21.738281 14.199219 21.820312 13.765625 21.765625 C 13.332031 21.707031 12.96875 21.523438 12.675781 21.203125 C 12.484375 20.992188 12.40625 20.78125 12.445312 20.5625 C 12.488281 20.347656 12.636719 20.148438 12.898438 19.972656 L 12.898438 19.96875 C 12.582031 20.035156 12.285156 20.039062 12.011719 19.96875 C 11.742188 19.902344 11.519531 19.773438 11.347656 19.585938 C 11.109375 19.324219 11.050781 19.058594 11.179688 18.796875 C 11.308594 18.53125 11.605469 18.304688 12.070312 18.109375 C 12.429688 17.960938 12.773438 17.878906 13.09375 17.871094 Z M 12.980469 18.328125 C 12.796875 18.332031 12.597656 18.378906 12.394531 18.464844 C 12.117188 18.578125 11.949219 18.710938 11.882812 18.871094 C 11.820312 19.03125 11.863281 19.195312 12.019531 19.367188 C 12.175781 19.535156 12.371094 19.636719 12.609375 19.671875 C 12.851562 19.703125 13.109375 19.660156 13.386719 19.546875 C 13.660156 19.433594 13.828125 19.296875 13.894531 19.140625 C 13.960938 18.980469 13.917969 18.8125 13.765625 18.640625 C 13.609375 18.472656 13.40625 18.371094 13.164062 18.339844 C 13.105469 18.332031 13.042969 18.328125 12.980469 18.328125 Z M 14.367188 19.753906 C 14.15625 19.753906 13.9375 19.804688 13.707031 19.898438 C 13.40625 20.023438 13.21875 20.179688 13.144531 20.363281 C 13.078125 20.546875 13.132812 20.738281 13.316406 20.9375 C 13.496094 21.136719 13.726562 21.257812 14.003906 21.296875 C 14.28125 21.339844 14.570312 21.296875 14.871094 21.171875 C 15.175781 21.046875 15.363281 20.886719 15.433594 20.703125 C 15.503906 20.515625 15.445312 20.324219 15.265625 20.128906 C 15.085938 19.929688 14.855469 19.808594 14.578125 19.769531 C 14.507812 19.757812 14.4375 19.753906 14.367188 19.753906 Z M 14.367188 19.753906 " fill-opacity="1" fill-rule="nonzero"/></g></svg>