<svg xmlns="http://www.w3.org/2000/svg" xmlns:xlink="http://www.w3.org/1999/xlink" width="500" zoomAndPan="magnify" viewBox="0 0 375 374.999991" height="500" preserveAspectRatio="xMidYMid meet" version="1.0"><defs><g/><clipPath id="id1"><path d="M 135.679688 134.851562 L 215.929688 134.851562 L 215.929688 211 L 135.679688 211 Z M 135.679688 134.851562 " clip-rule="nonzero"/></clipPath></defs><g clip-path="url(#id1)"><path fill="#000000" d="M 162.894531 134.882812 C 162.773438 134.886719 162.652344 134.890625 162.539062 134.917969 C 161.335938 135.109375 160.722656 136.355469 159.84375 137.53125 C 158.847656 151.242188 157.441406 163.796875 156.445312 177.523438 C 160.617188 177.210938 166.347656 177.273438 172.234375 177.195312 C 178.640625 177.105469 184.878906 176.664062 187.9375 175.546875 C 194.234375 173.25 199.089844 167.425781 203.148438 158.769531 C 190.675781 151.113281 177.25 142.015625 165.734375 135.804688 C 164.734375 135.382812 163.734375 134.863281 162.894531 134.882812 Z M 157.464844 140.488281 C 150.007812 154.710938 143.410156 166.347656 135.886719 180.816406 C 135.738281 184.707031 136.5 186.941406 137.472656 188.367188 C 138.449219 189.792969 139.332031 190.160156 140.640625 190.074219 C 142.523438 189.445312 144.894531 187.75 147.34375 185.609375 C 148.273438 184.777344 154.226562 179.570312 154.734375 178.421875 C 155.667969 165.554688 156.527344 153.433594 157.464844 140.492188 Z M 178.765625 141.167969 C 187.84375 146.847656 196.523438 152.5625 204.425781 157.277344 C 206.789062 158.6875 211.265625 160.359375 214.652344 161.371094 C 211.429688 158.082031 207.75 155.253906 203.652344 153.214844 Z M 172.980469 146.472656 C 173.898438 146.449219 174.804688 146.707031 175.703125 147.242188 C 177.5 148.296875 179.171875 150.414062 180.714844 153.601562 C 182.15625 156.578125 182.699219 159.332031 182.347656 161.863281 C 182 164.386719 180.800781 166.28125 178.753906 167.554688 C 178.207031 167.894531 177.625 168.179688 177 168.402344 L 174.96875 168.921875 L 173.839844 166.597656 C 174.535156 166.558594 175.203125 166.445312 175.84375 166.257812 C 176.488281 166.066406 177.078125 165.796875 177.621094 165.460938 C 179.066406 164.5625 179.890625 163.3125 180.101562 161.714844 C 180.316406 160.097656 179.925781 158.105469 178.914062 155.730469 C 178.847656 156.714844 178.582031 157.597656 178.125 158.386719 C 177.671875 159.171875 177.050781 159.804688 176.269531 160.292969 C 174.652344 161.296875 173.09375 161.53125 171.597656 160.980469 C 170.101562 160.417969 168.875 159.140625 167.914062 157.160156 C 166.976562 155.222656 166.710938 153.363281 167.125 151.578125 C 167.542969 149.796875 168.570312 148.402344 170.203125 147.386719 C 171.140625 146.804688 172.0625 146.496094 172.980469 146.472656 Z M 172.777344 148.878906 C 172.246094 148.898438 171.71875 149.074219 171.179688 149.40625 C 170.195312 150.015625 169.609375 150.902344 169.414062 152.054688 C 169.222656 153.191406 169.457031 154.433594 170.117188 155.792969 C 170.777344 157.15625 171.585938 158.054688 172.535156 158.484375 L 175.445312 158.207031 C 176.429688 157.597656 177.011719 156.726562 177.203125 155.585938 C 177.402344 154.441406 177.171875 153.1875 176.511719 151.820312 C 175.851562 150.464844 175.046875 149.570312 174.089844 149.148438 C 173.730469 148.984375 173.367188 148.894531 173.007812 148.878906 C 172.933594 148.875 172.851562 148.875 172.777344 148.878906 Z M 153.394531 156.042969 C 153.582031 156.03125 153.738281 156.085938 153.855469 156.203125 C 154.238281 156.566406 154.210938 157.519531 153.765625 159.066406 C 153.457031 160.144531 153.019531 161.199219 152.464844 162.230469 C 151.910156 163.257812 151.285156 164.179688 150.574219 164.996094 C 151.191406 164.679688 151.574219 164.78125 151.71875 165.308594 C 151.867188 165.828125 151.757812 166.714844 151.398438 167.964844 C 150.847656 169.882812 150.050781 171.675781 149.023438 173.339844 C 147.992188 175.003906 146.8125 176.394531 145.472656 177.523438 C 145.023438 177.902344 144.582031 178.21875 144.152344 178.457031 C 143.722656 178.699219 143.296875 178.867188 142.882812 178.972656 L 143.621094 176.433594 C 143.898438 176.519531 144.242188 176.476562 144.65625 176.289062 C 145.074219 176.105469 145.546875 175.789062 146.066406 175.351562 C 146.976562 174.585938 147.757812 173.675781 148.417969 172.625 C 149.085938 171.570312 149.597656 170.421875 149.953125 169.179688 C 150.28125 168.035156 150.320312 167.328125 150.058594 167.0625 C 149.808594 166.78125 149.289062 166.96875 148.5 167.632812 L 147.246094 168.6875 L 147.867188 166.523438 L 149.171875 165.425781 C 149.886719 164.824219 150.511719 164.109375 151.035156 163.277344 C 151.5625 162.4375 151.960938 161.53125 152.242188 160.558594 C 152.527344 159.558594 152.550781 158.960938 152.3125 158.761719 C 152.082031 158.550781 151.601562 158.746094 150.875 159.359375 C 150.480469 159.695312 150.027344 160.125 149.527344 160.667969 C 149.027344 161.207031 148.464844 161.871094 147.824219 162.660156 L 148.5 160.316406 C 149.128906 159.574219 149.699219 158.9375 150.21875 158.394531 C 150.742188 157.847656 151.210938 157.394531 151.636719 157.035156 C 152.394531 156.398438 152.980469 156.066406 153.394531 156.042969 Z M 205.136719 159.78125 C 201.125 168.328125 196.015625 174.835938 189.46875 177.542969 L 190.464844 210.105469 C 192.175781 209.144531 192.496094 208.566406 193.25 206.742188 L 215.566406 165.449219 C 215.878906 164.648438 215.90625 164.125 215.414062 163.789062 C 211.734375 162.75 208.574219 161.480469 205.136719 159.78125 Z M 188.289062 165.476562 L 189.070312 167.078125 L 176.128906 173.492188 L 175.339844 171.890625 Z M 207.273438 171.488281 L 206.386719 173.832031 C 205.398438 175.160156 204.066406 176.945312 202.386719 179.1875 C 200.695312 181.441406 199.621094 182.878906 199.164062 183.515625 C 198.304688 184.714844 197.648438 185.703125 197.195312 186.46875 C 196.738281 187.246094 196.378906 187.96875 196.121094 188.640625 C 195.703125 189.734375 195.570312 190.546875 195.722656 191.066406 C 195.871094 191.585938 196.277344 191.703125 196.9375 191.433594 C 197.40625 191.238281 197.957031 190.886719 198.597656 190.367188 C 199.230469 189.851562 199.96875 189.160156 200.796875 188.300781 L 199.714844 191.109375 C 198.941406 191.808594 198.25 192.382812 197.640625 192.828125 C 197.027344 193.273438 196.503906 193.585938 196.070312 193.765625 C 194.925781 194.238281 194.214844 194.078125 193.941406 193.292969 C 193.667969 192.507812 193.871094 191.222656 194.550781 189.4375 C 194.875 188.589844 195.269531 187.757812 195.730469 186.925781 C 196.1875 186.101562 196.839844 185.082031 197.683594 183.867188 C 197.910156 183.546875 198.59375 182.617188 199.742188 181.066406 L 204.585938 174.574219 L 199.359375 176.71875 L 200.257812 174.375 Z M 187.703125 178.1875 C 184.09375 179.277344 178.292969 179.507812 172.253906 179.589844 C 167.128906 179.640625 160.113281 179.234375 155.976562 179.984375 C 153.5625 182.332031 150.960938 184.839844 148.417969 187.058594 C 146.15625 188.96875 143.835938 190.957031 140.976562 191.871094 C 140.625 191.898438 140.566406 191.859375 140.214844 191.816406 C 141.273438 192.777344 142.386719 193.363281 143.59375 194.050781 L 184.308594 210.492188 C 184.523438 210.53125 186.777344 211.375 188.621094 210.5 L 187.707031 178.183594 Z M 168.144531 187.265625 C 168.328125 187.257812 168.507812 187.257812 168.6875 187.265625 C 168.890625 187.269531 169.089844 187.289062 169.289062 187.308594 C 170.894531 187.480469 172.171875 188.09375 173.121094 189.160156 C 173.800781 189.921875 174.082031 190.699219 173.945312 191.484375 C 173.820312 192.269531 173.304688 192.984375 172.402344 193.632812 C 173.796875 193.320312 175.089844 193.320312 176.289062 193.625 C 177.496094 193.921875 178.476562 194.496094 179.234375 195.347656 C 180.386719 196.640625 180.714844 197.863281 180.226562 199.023438 C 179.746094 200.183594 178.488281 201.203125 176.441406 202.074219 C 174.390625 202.949219 172.507812 203.269531 170.789062 203.050781 C 169.078125 202.824219 167.648438 202.070312 166.496094 200.777344 C 165.738281 199.925781 165.4375 199.0625 165.589844 198.183594 C 165.746094 197.304688 166.335938 196.507812 167.367188 195.789062 L 167.367188 195.777344 C 166.117188 196.046875 164.957031 196.050781 163.878906 195.777344 C 162.808594 195.503906 161.933594 194.984375 161.253906 194.222656 C 160.304688 193.15625 160.078125 192.089844 160.578125 191.019531 C 161.089844 189.949219 162.269531 189.023438 164.109375 188.238281 C 165.527344 187.636719 166.871094 187.308594 168.144531 187.265625 Z M 167.703125 189.125 C 166.964844 189.136719 166.1875 189.324219 165.378906 189.671875 C 164.292969 190.132812 163.625 190.679688 163.363281 191.324219 C 163.113281 191.964844 163.289062 192.636719 163.90625 193.328125 C 164.523438 194.019531 165.296875 194.429688 166.238281 194.5625 C 167.1875 194.691406 168.210938 194.523438 169.300781 194.0625 C 170.378906 193.601562 171.042969 193.050781 171.304688 192.40625 C 171.574219 191.757812 171.40625 191.085938 170.789062 190.394531 C 170.171875 189.703125 169.378906 189.292969 168.421875 189.167969 C 168.183594 189.136719 167.949219 189.121094 167.703125 189.125 Z M 173.175781 194.902344 C 172.335938 194.902344 171.46875 195.097656 170.566406 195.484375 C 169.371094 195.992188 168.628906 196.617188 168.351562 197.371094 C 168.078125 198.117188 168.296875 198.890625 169.015625 199.695312 C 169.730469 200.5 170.640625 200.992188 171.730469 201.164062 C 172.828125 201.328125 173.96875 201.152344 175.164062 200.644531 C 176.355469 200.136719 177.101562 199.5 177.378906 198.746094 C 177.65625 197.988281 177.433594 197.210938 176.722656 196.414062 C 176.007812 195.609375 175.097656 195.128906 174 194.964844 C 173.726562 194.921875 173.453125 194.902344 173.175781 194.902344 Z M 173.175781 194.902344 " fill-opacity="1" fill-rule="nonzero"/></g><g fill="#000000" fill-opacity="1"><g transform="translate(60.644053, 193.963991)"><g><path d="M 7.601562 -6.742188 L 7.601562 -13.050781 C 8.605469 -14.199219 10.613281 -15.871094 12.429688 -16.730469 C 15.34375 -18.117188 16.875 -16.875 17.878906 -14.007812 C 19.074219 -10.757812 19.984375 -6.117188 21.703125 -2.964844 C 22.613281 -1.242188 24 0 26.339844 0 C 27.726562 0 29.113281 -0.574219 29.78125 -1.960938 L 29.449219 -2.246094 C 28.492188 -1.433594 27.390625 -2.054688 26.722656 -2.820312 C 25.003906 -4.683594 23.042969 -12.09375 22.132812 -14.773438 C 21.417969 -16.875 19.886719 -18.261719 17.160156 -18.546875 C 21.65625 -20.125 26.386719 -21.847656 26.386719 -26.578125 C 26.386719 -31.265625 21.703125 -32.699219 17.832031 -32.699219 L 0 -32.699219 L 0 -32.269531 C 2.054688 -32.363281 3.058594 -30.976562 3.058594 -25.910156 L 3.058594 -6.742188 C 3.058594 -1.671875 2.054688 -0.335938 0 -0.429688 L 0 0 L 10.660156 0 L 10.660156 -0.429688 C 8.605469 -0.335938 7.601562 -1.671875 7.601562 -6.742188 Z M 7.601562 -31.839844 L 14.246094 -31.839844 C 17.59375 -31.839844 21.847656 -31.027344 21.800781 -26.769531 C 21.800781 -22.46875 15.152344 -19.695312 12.046875 -17.640625 C 10.375 -16.589844 8.84375 -15.535156 7.601562 -14.292969 Z M 7.601562 -31.839844 "/></g></g></g><g fill="#000000" fill-opacity="1"><g transform="translate(91.857925, 193.963991)"><g><path d="M 13.625 -25.957031 C 20.796875 -25.957031 26.628906 -20.125 26.628906 -12.957031 C 26.628906 -5.785156 20.796875 0 13.625 0 C 6.453125 0 0.667969 -5.785156 0.667969 -12.957031 C 0.667969 -20.125 6.453125 -25.957031 13.625 -25.957031 Z M 9.609375 -24.378906 C 5.066406 -22.804688 3.203125 -16.398438 5.449219 -10.085938 C 7.695312 -3.777344 13.144531 0.046875 17.6875 -1.53125 C 22.179688 -3.15625 24.046875 -9.5625 21.847656 -15.871094 C 19.601562 -22.179688 14.148438 -26.007812 9.609375 -24.378906 Z M 9.609375 -24.378906 "/></g></g></g><g fill="#000000" fill-opacity="1"><g transform="translate(120.442758, 193.963991)"><g><path d="M 7.363281 -6.742188 L 7.363281 -35.855469 C 6.070312 -33.988281 2.820312 -32.699219 0 -32.699219 L 0 -32.269531 C 2.054688 -32.363281 3.058594 -31.027344 3.058594 -25.957031 L 3.058594 -6.742188 C 3.058594 -1.671875 2.054688 -0.335938 0 -0.429688 L 0 0 L 10.421875 0 L 10.421875 -0.429688 C 8.367188 -0.335938 7.363281 -1.671875 7.363281 -6.742188 Z M 7.363281 -6.742188 "/></g></g></g><g fill="#000000" fill-opacity="1"><g transform="translate(216.247226, 193.963991)"><g><path d="M 16.347656 -32.699219 C 25.382812 -32.699219 32.699219 -25.382812 32.699219 -16.347656 C 32.699219 -7.3125 25.382812 0 16.347656 0 C 7.3125 0 0 -7.3125 0 -16.347656 C 0 -25.382812 7.3125 -32.699219 16.347656 -32.699219 Z M 11.089844 -30.882812 C 4.972656 -28.683594 2.390625 -20.414062 5.304688 -12.332031 C 8.222656 -4.300781 15.488281 0.429688 21.609375 -1.769531 C 27.679688 -3.96875 30.308594 -12.285156 27.390625 -20.316406 C 24.476562 -28.347656 17.160156 -33.082031 11.089844 -30.882812 Z M 11.089844 -30.882812 "/></g></g></g><g fill="#000000" fill-opacity="1"><g transform="translate(250.424741, 193.963991)"><g><path d="M 29.832031 -1.960938 L 29.496094 -2.246094 C 28.300781 -1.289062 27.011719 -2.34375 26.386719 -3.25 C 23.519531 -7.554688 23.710938 -16.730469 21.175781 -22.132812 C 19.933594 -24.8125 17.925781 -25.957031 15.679688 -25.957031 C 12.238281 -25.957031 9.464844 -23.042969 7.363281 -20.222656 L 7.363281 -25.957031 C 6.070312 -24.09375 2.820312 -22.804688 0 -22.804688 L 0 -22.371094 C 2.054688 -22.46875 3.058594 -21.082031 3.058594 -16.015625 L 3.058594 -6.742188 C 3.058594 -1.671875 2.054688 -0.335938 0 -0.429688 L 0 0 L 10.421875 0 L 10.421875 -0.429688 C 8.367188 -0.335938 7.363281 -1.671875 7.363281 -6.742188 L 7.363281 -18.691406 C 8.125 -19.792969 9.128906 -21.035156 10.230469 -21.992188 C 12.859375 -24.238281 15.777344 -24.570312 17.210938 -20.890625 C 19.265625 -15.585938 19.121094 -9.273438 21.273438 -4.015625 C 22.179688 -1.769531 23.472656 0 26.339844 0 C 27.726562 0 29.113281 -0.574219 29.832031 -1.960938 Z M 29.832031 -1.960938 "/></g></g></g><g fill="#000000" fill-opacity="1"><g transform="translate(281.495208, 193.963991)"><g><path d="M 13.625 -25.957031 C 6.5 -25.957031 0.667969 -20.125 0.667969 -12.957031 C 0.667969 -5.785156 6.5 0 13.625 0 C 19.742188 0 24.8125 -4.207031 26.246094 -9.847656 L 25.816406 -9.847656 C 24.1875 -5.164062 20.554688 -2.390625 16.730469 -1.960938 C 10.613281 -1.289062 6.214844 -6.40625 4.925781 -11.855469 C 4.636719 -13.050781 4.542969 -14.199219 4.492188 -15.34375 C 10.996094 -15.34375 17.6875 -15.34375 24.1875 -15.34375 C 24.238281 -20.460938 20.269531 -25.957031 13.625 -25.957031 Z M 19.886719 -16.207031 L 4.542969 -16.207031 C 4.734375 -20.078125 6.597656 -23.328125 9.609375 -24.378906 C 13.910156 -25.910156 19.21875 -22.707031 19.886719 -16.207031 Z M 19.886719 -16.207031 "/></g></g></g></svg>
