<svg xmlns="http://www.w3.org/2000/svg" xmlns:xlink="http://www.w3.org/1999/xlink" width="500" zoomAndPan="magnify" viewBox="0 0 375 374.999991" height="500" preserveAspectRatio="xMidYMid meet" version="1.0"><defs><clipPath id="id1"><path d="M 155 114 L 252.339844 114 L 252.339844 261 L 155 261 Z M 155 114 " clip-rule="nonzero"/></clipPath><clipPath id="id2"><path d="M 122.589844 150 L 184 150 L 184 224 L 122.589844 224 Z M 122.589844 150 " clip-rule="nonzero"/></clipPath></defs><g clip-path="url(#id1)"><path stroke-linecap="round" transform="matrix(6.722798, 0, 0, 6.725834, 107.128466, 104.43594)" fill="none" stroke-linejoin="round" d="M 20.000225 1.966763 L 8.873208 1.966763 C 8.798253 1.967925 8.723879 1.976056 8.650668 1.991156 C 8.576875 2.006256 8.505987 2.028326 8.436843 2.057365 C 8.367698 2.085824 8.30204 2.121251 8.239287 2.163068 C 8.177116 2.204884 8.119592 2.251928 8.066136 2.304779 C 8.013261 2.35763 7.965615 2.415128 7.923199 2.476691 C 7.881364 2.538834 7.845339 2.604463 7.816287 2.673576 C 7.786653 2.742109 7.763992 2.813545 7.748304 2.886723 C 7.732616 2.959902 7.724481 3.034242 7.722738 3.109163 L 7.722738 7.41625 L 7.732035 7.405796 L 7.732035 9.727186 L 10.855734 9.727186 L 10.855734 14.90022 L 7.732035 14.90022 L 7.732035 17.219868 L 7.722738 17.209994 L 7.722738 21.519985 C 7.724481 21.594906 7.732616 21.669246 7.748304 21.742425 C 7.763992 21.815604 7.786653 21.88704 7.815705 21.955572 C 7.845339 22.024685 7.880783 22.090314 7.923199 22.152458 C 7.965034 22.214602 8.01268 22.271518 8.066136 22.32437 C 8.119011 22.377221 8.177116 22.424845 8.239287 22.466081 C 8.301459 22.507897 8.367117 22.543325 8.436843 22.572364 C 8.505987 22.600822 8.576875 22.622892 8.650668 22.637992 C 8.723879 22.653093 8.798253 22.661224 8.873208 22.661804 L 20.000225 22.661804 C 20.07518 22.661804 20.148973 22.654254 20.222765 22.639154 C 20.295977 22.624634 20.367446 22.602565 20.43659 22.574106 C 20.505734 22.545067 20.571392 22.51022 20.633564 22.468404 C 20.696317 22.426587 20.753841 22.379544 20.806716 22.326693 C 20.859591 22.273261 20.907237 22.215763 20.949072 22.153619 C 20.990326 22.091476 21.02577 22.025847 21.054822 21.956734 C 21.083293 21.88704 21.105373 21.816184 21.12048 21.742425 C 21.135006 21.669246 21.14256 21.594906 21.143141 21.519985 L 21.143141 3.109163 C 21.14256 3.034242 21.135006 2.959902 21.119899 2.886723 C 21.105373 2.812964 21.083293 2.741528 21.054241 2.672415 C 21.02577 2.603301 20.990326 2.537673 20.948491 2.475529 C 20.906656 2.413385 20.859591 2.355888 20.806135 2.303037 C 20.75326 2.250185 20.695736 2.202561 20.633564 2.160745 C 20.571392 2.119509 20.505734 2.084081 20.43659 2.055042 C 20.367446 2.026584 20.295977 2.004514 20.222765 1.989995 C 20.148973 1.974894 20.07518 1.967344 20.000225 1.966763 Z M 20.000225 1.966763 " stroke="#000000" stroke-width="1" stroke-opacity="1" stroke-miterlimit="4"/></g><g clip-path="url(#id2)"><path stroke-linecap="round" transform="matrix(6.722798, 0, 0, 6.725834, 107.128466, 104.43594)" fill="none" stroke-linejoin="round" d="M 2.800123 12.302959 L 7.732035 17.222191 L 7.732035 14.901963 L 10.855734 14.901963 L 10.855734 9.727186 L 7.732035 9.727186 L 7.732035 7.405796 Z M 2.800123 12.302959 " stroke="#000000" stroke-width="1" stroke-opacity="1" stroke-miterlimit="4"/></g><path stroke-linecap="square" transform="matrix(6.722798, 0, 0, 6.725834, 107.128466, 104.43594)" fill="none" stroke-linejoin="round" d="M 12.50997 14.901963 L 12.50997 9.727186 " stroke="#000000" stroke-width="1" stroke-opacity="1" stroke-miterlimit="4"/></svg>