<svg xmlns="http://www.w3.org/2000/svg" xmlns:xlink="http://www.w3.org/1999/xlink" width="100" zoomAndPan="magnify" viewBox="0 0 75 30.000001" height="40" preserveAspectRatio="xMidYMid meet" version="1.0"><defs><g/><clipPath id="id1"><path d="M 24.46875 4.941406 L 44.792969 4.941406 L 44.792969 23.8125 L 24.46875 23.8125 Z M 24.46875 4.941406 " clip-rule="nonzero"/></clipPath></defs><g clip-path="url(#id1)"><path fill="#000000" d="M 31.359375 4.949219 C 31.332031 4.949219 31.300781 4.949219 31.269531 4.957031 C 30.964844 5.003906 30.8125 5.3125 30.589844 5.601562 C 30.335938 8.984375 29.980469 12.082031 29.726562 15.46875 C 30.785156 15.390625 32.234375 15.40625 33.726562 15.386719 C 35.347656 15.363281 36.929688 15.253906 37.703125 14.980469 C 39.296875 14.414062 40.527344 12.976562 41.558594 10.839844 C 38.398438 8.953125 34.996094 6.707031 32.082031 5.175781 C 31.828125 5.070312 31.574219 4.945312 31.359375 4.949219 Z M 29.984375 6.332031 C 28.097656 9.839844 26.425781 12.710938 24.519531 16.28125 C 24.484375 17.238281 24.675781 17.789062 24.921875 18.140625 C 25.167969 18.492188 25.394531 18.585938 25.722656 18.5625 C 26.203125 18.40625 26.800781 17.988281 27.421875 17.460938 C 27.65625 17.257812 29.164062 15.972656 29.292969 15.6875 C 29.53125 12.515625 29.746094 9.523438 29.984375 6.332031 Z M 35.378906 6.5 C 37.679688 7.902344 39.878906 9.308594 41.878906 10.472656 C 42.480469 10.820312 43.613281 11.234375 44.472656 11.484375 C 43.65625 10.671875 42.722656 9.972656 41.683594 9.472656 Z M 33.914062 7.808594 C 34.148438 7.800781 34.378906 7.867188 34.605469 7.996094 C 35.0625 8.257812 35.484375 8.78125 35.875 9.566406 C 36.238281 10.300781 36.378906 10.980469 36.289062 11.605469 C 36.199219 12.226562 35.894531 12.695312 35.378906 13.007812 C 35.238281 13.09375 35.089844 13.164062 34.933594 13.21875 L 34.417969 13.34375 L 34.132812 12.773438 C 34.308594 12.761719 34.480469 12.734375 34.640625 12.6875 C 34.804688 12.640625 34.953125 12.574219 35.089844 12.492188 C 35.457031 12.269531 35.667969 11.960938 35.71875 11.566406 C 35.773438 11.167969 35.675781 10.679688 35.417969 10.089844 C 35.402344 10.335938 35.335938 10.550781 35.21875 10.746094 C 35.101562 10.941406 34.945312 11.097656 34.75 11.214844 C 34.339844 11.464844 33.945312 11.523438 33.566406 11.386719 C 33.1875 11.246094 32.875 10.933594 32.632812 10.445312 C 32.394531 9.964844 32.328125 9.507812 32.433594 9.066406 C 32.539062 8.628906 32.796875 8.285156 33.210938 8.03125 C 33.449219 7.890625 33.683594 7.8125 33.914062 7.808594 Z M 33.863281 8.402344 C 33.730469 8.40625 33.597656 8.449219 33.460938 8.53125 C 33.210938 8.683594 33.0625 8.898438 33.011719 9.183594 C 32.964844 9.464844 33.023438 9.773438 33.191406 10.105469 C 33.359375 10.445312 33.5625 10.664062 33.804688 10.769531 L 34.539062 10.703125 C 34.789062 10.550781 34.9375 10.335938 34.984375 10.054688 C 35.035156 9.773438 34.976562 9.464844 34.808594 9.128906 C 34.644531 8.792969 34.4375 8.570312 34.195312 8.46875 C 34.105469 8.425781 34.015625 8.40625 33.921875 8.402344 C 33.902344 8.402344 33.882812 8.402344 33.863281 8.402344 Z M 28.953125 10.167969 C 29.003906 10.164062 29.042969 10.179688 29.070312 10.207031 C 29.167969 10.296875 29.160156 10.53125 29.050781 10.914062 C 28.96875 11.179688 28.859375 11.441406 28.71875 11.695312 C 28.578125 11.949219 28.417969 12.175781 28.242188 12.375 C 28.394531 12.300781 28.492188 12.324219 28.53125 12.453125 C 28.566406 12.582031 28.539062 12.800781 28.449219 13.109375 C 28.308594 13.582031 28.109375 14.023438 27.847656 14.433594 C 27.585938 14.84375 27.289062 15.1875 26.949219 15.46875 C 26.835938 15.5625 26.722656 15.636719 26.613281 15.695312 C 26.503906 15.757812 26.398438 15.800781 26.292969 15.824219 L 26.480469 15.199219 C 26.550781 15.21875 26.636719 15.210938 26.742188 15.164062 C 26.847656 15.117188 26.964844 15.039062 27.097656 14.929688 C 27.328125 14.742188 27.527344 14.519531 27.695312 14.257812 C 27.863281 14 27.992188 13.714844 28.082031 13.410156 C 28.167969 13.125 28.175781 12.953125 28.109375 12.886719 C 28.046875 12.816406 27.914062 12.863281 27.714844 13.027344 L 27.398438 13.289062 L 27.554688 12.753906 L 27.886719 12.484375 C 28.066406 12.335938 28.222656 12.160156 28.355469 11.953125 C 28.492188 11.746094 28.589844 11.523438 28.664062 11.28125 C 28.734375 11.035156 28.742188 10.886719 28.679688 10.839844 C 28.621094 10.785156 28.5 10.835938 28.316406 10.988281 C 28.214844 11.070312 28.101562 11.175781 27.976562 11.308594 C 27.847656 11.441406 27.707031 11.605469 27.542969 11.800781 L 27.714844 11.222656 C 27.875 11.039062 28.019531 10.882812 28.148438 10.75 C 28.28125 10.613281 28.402344 10.5 28.511719 10.414062 C 28.703125 10.257812 28.847656 10.175781 28.953125 10.167969 Z M 42.058594 11.089844 C 41.042969 13.199219 39.75 14.804688 38.09375 15.472656 L 38.34375 23.503906 C 38.777344 23.265625 38.859375 23.125 39.050781 22.675781 L 44.703125 12.488281 C 44.78125 12.289062 44.789062 12.164062 44.664062 12.078125 C 43.730469 11.824219 42.929688 11.511719 42.058594 11.089844 Z M 37.792969 12.496094 L 37.992188 12.890625 L 34.714844 14.472656 L 34.511719 14.078125 Z M 42.601562 13.976562 L 42.378906 14.554688 C 42.128906 14.882812 41.789062 15.324219 41.363281 15.878906 C 40.9375 16.433594 40.664062 16.789062 40.546875 16.945312 C 40.328125 17.242188 40.164062 17.484375 40.050781 17.675781 C 39.933594 17.867188 39.84375 18.042969 39.777344 18.210938 C 39.671875 18.480469 39.636719 18.679688 39.675781 18.808594 C 39.714844 18.9375 39.816406 18.964844 39.984375 18.898438 C 40.101562 18.851562 40.242188 18.765625 40.40625 18.636719 C 40.566406 18.507812 40.75 18.339844 40.960938 18.125 L 40.6875 18.820312 C 40.492188 18.992188 40.316406 19.132812 40.160156 19.242188 C 40.007812 19.351562 39.875 19.429688 39.765625 19.472656 C 39.472656 19.589844 39.292969 19.550781 39.226562 19.355469 C 39.15625 19.164062 39.207031 18.847656 39.378906 18.40625 C 39.460938 18.199219 39.5625 17.992188 39.679688 17.785156 C 39.792969 17.582031 39.960938 17.332031 40.171875 17.03125 C 40.230469 16.953125 40.402344 16.722656 40.695312 16.339844 L 41.921875 14.738281 L 40.597656 15.269531 L 40.824219 14.691406 Z M 37.644531 15.632812 C 36.730469 15.898438 35.261719 15.957031 33.730469 15.976562 C 32.433594 15.988281 30.65625 15.890625 29.609375 16.074219 C 28.996094 16.652344 28.339844 17.273438 27.695312 17.820312 C 27.121094 18.292969 26.535156 18.78125 25.808594 19.007812 C 25.71875 19.011719 25.707031 19.003906 25.617188 18.992188 C 25.882812 19.230469 26.167969 19.375 26.472656 19.542969 L 36.785156 23.601562 C 36.839844 23.609375 37.410156 23.816406 37.875 23.601562 L 37.644531 15.628906 Z M 32.691406 17.871094 C 32.738281 17.867188 32.78125 17.867188 32.828125 17.871094 C 32.878906 17.871094 32.929688 17.875 32.980469 17.882812 C 33.386719 17.921875 33.710938 18.074219 33.953125 18.339844 C 34.125 18.527344 34.195312 18.71875 34.160156 18.910156 C 34.128906 19.105469 33.996094 19.28125 33.769531 19.441406 C 34.121094 19.363281 34.449219 19.363281 34.753906 19.4375 C 35.058594 19.511719 35.308594 19.65625 35.5 19.863281 C 35.792969 20.183594 35.875 20.484375 35.75 20.769531 C 35.628906 21.058594 35.3125 21.308594 34.792969 21.523438 C 34.273438 21.738281 33.796875 21.820312 33.359375 21.765625 C 32.925781 21.707031 32.566406 21.523438 32.273438 21.203125 C 32.082031 20.992188 32.003906 20.78125 32.042969 20.5625 C 32.082031 20.347656 32.230469 20.148438 32.492188 19.972656 L 32.492188 19.96875 C 32.175781 20.035156 31.882812 20.039062 31.609375 19.96875 C 31.339844 19.902344 31.117188 19.773438 30.945312 19.585938 C 30.703125 19.324219 30.648438 19.058594 30.773438 18.796875 C 30.902344 18.53125 31.203125 18.304688 31.667969 18.109375 C 32.027344 17.960938 32.367188 17.878906 32.691406 17.871094 Z M 32.578125 18.328125 C 32.390625 18.332031 32.195312 18.378906 31.988281 18.464844 C 31.714844 18.578125 31.546875 18.710938 31.480469 18.871094 C 31.417969 19.03125 31.460938 19.195312 31.617188 19.367188 C 31.773438 19.535156 31.96875 19.636719 32.207031 19.671875 C 32.449219 19.703125 32.707031 19.660156 32.984375 19.546875 C 33.257812 19.433594 33.425781 19.296875 33.492188 19.140625 C 33.558594 18.980469 33.515625 18.8125 33.359375 18.640625 C 33.203125 18.472656 33.003906 18.371094 32.761719 18.339844 C 32.699219 18.332031 32.640625 18.328125 32.578125 18.328125 Z M 33.964844 19.753906 C 33.753906 19.753906 33.53125 19.804688 33.304688 19.898438 C 33 20.023438 32.8125 20.179688 32.742188 20.363281 C 32.675781 20.546875 32.730469 20.738281 32.910156 20.9375 C 33.09375 21.136719 33.324219 21.257812 33.597656 21.296875 C 33.875 21.339844 34.164062 21.296875 34.46875 21.171875 C 34.769531 21.046875 34.960938 20.886719 35.03125 20.703125 C 35.097656 20.515625 35.042969 20.324219 34.863281 20.128906 C 34.683594 19.929688 34.453125 19.808594 34.175781 19.769531 C 34.105469 19.757812 34.035156 19.753906 33.964844 19.753906 Z M 33.964844 19.753906 " fill-opacity="1" fill-rule="nonzero"/></g><g fill="#000000" fill-opacity="1"><g transform="translate(3.434727, 21.071578)"><g><path d="M 2.125 -1.882812 L 2.125 -3.644531 C 2.402344 -3.964844 2.964844 -4.433594 3.472656 -4.675781 C 4.285156 -5.0625 4.714844 -4.714844 4.996094 -3.914062 C 5.328125 -3.003906 5.582031 -1.710938 6.0625 -0.828125 C 6.316406 -0.347656 6.703125 0 7.359375 0 C 7.746094 0 8.132812 -0.160156 8.320312 -0.546875 L 8.226562 -0.628906 C 7.960938 -0.402344 7.652344 -0.574219 7.464844 -0.789062 C 6.984375 -1.308594 6.4375 -3.378906 6.183594 -4.125 C 5.984375 -4.714844 5.554688 -5.101562 4.792969 -5.183594 C 6.050781 -5.621094 7.371094 -6.101562 7.371094 -7.425781 C 7.371094 -8.734375 6.0625 -9.132812 4.980469 -9.132812 L 0 -9.132812 L 0 -9.015625 C 0.574219 -9.042969 0.855469 -8.652344 0.855469 -7.238281 L 0.855469 -1.882812 C 0.855469 -0.46875 0.574219 -0.09375 0 -0.121094 L 0 0 L 2.976562 0 L 2.976562 -0.121094 C 2.402344 -0.09375 2.125 -0.46875 2.125 -1.882812 Z M 2.125 -8.894531 L 3.980469 -8.894531 C 4.914062 -8.894531 6.101562 -8.667969 6.089844 -7.480469 C 6.089844 -6.277344 4.234375 -5.503906 3.367188 -4.929688 C 2.898438 -4.632812 2.46875 -4.339844 2.125 -3.992188 Z M 2.125 -8.894531 "/></g></g></g><g fill="#000000" fill-opacity="1"><g transform="translate(12.151005, 21.071578)"><g><path d="M 3.804688 -7.25 C 5.808594 -7.25 7.4375 -5.621094 7.4375 -3.621094 C 7.4375 -1.617188 5.808594 0 3.804688 0 C 1.804688 0 0.1875 -1.617188 0.1875 -3.621094 C 0.1875 -5.621094 1.804688 -7.25 3.804688 -7.25 Z M 2.683594 -6.8125 C 1.414062 -6.371094 0.894531 -4.582031 1.523438 -2.816406 C 2.148438 -1.054688 3.671875 0.0117188 4.941406 -0.425781 C 6.195312 -0.882812 6.71875 -2.671875 6.101562 -4.433594 C 5.476562 -6.195312 3.953125 -7.265625 2.683594 -6.8125 Z M 2.683594 -6.8125 "/></g></g></g><g fill="#000000" fill-opacity="1"><g transform="translate(20.133148, 21.071578)"><g><path d="M 2.058594 -1.882812 L 2.058594 -10.015625 C 1.695312 -9.496094 0.789062 -9.132812 0 -9.132812 L 0 -9.015625 C 0.574219 -9.042969 0.855469 -8.667969 0.855469 -7.25 L 0.855469 -1.882812 C 0.855469 -0.46875 0.574219 -0.09375 0 -0.121094 L 0 0 L 2.910156 0 L 2.910156 -0.121094 C 2.335938 -0.09375 2.058594 -0.46875 2.058594 -1.882812 Z M 2.058594 -1.882812 "/></g></g></g><g fill="#000000" fill-opacity="1"><g transform="translate(46.132559, 21.071578)"><g><path d="M 4.566406 -9.132812 C 7.089844 -9.132812 9.132812 -7.089844 9.132812 -4.566406 C 9.132812 -2.042969 7.089844 0 4.566406 0 C 2.042969 0 0 -2.042969 0 -4.566406 C 0 -7.089844 2.042969 -9.132812 4.566406 -9.132812 Z M 3.097656 -8.628906 C 1.390625 -8.011719 0.667969 -5.703125 1.480469 -3.445312 C 2.296875 -1.203125 4.328125 0.121094 6.035156 -0.492188 C 7.734375 -1.109375 8.46875 -3.433594 7.652344 -5.675781 C 6.835938 -7.917969 4.792969 -9.242188 3.097656 -8.628906 Z M 3.097656 -8.628906 "/></g></g></g><g fill="#000000" fill-opacity="1"><g transform="translate(55.676422, 21.071578)"><g><path d="M 8.332031 -0.546875 L 8.238281 -0.628906 C 7.90625 -0.359375 7.546875 -0.65625 7.371094 -0.90625 C 6.570312 -2.109375 6.625 -4.675781 5.917969 -6.183594 C 5.570312 -6.929688 5.007812 -7.25 4.378906 -7.25 C 3.417969 -7.25 2.644531 -6.4375 2.058594 -5.648438 L 2.058594 -7.25 C 1.695312 -6.730469 0.789062 -6.371094 0 -6.371094 L 0 -6.25 C 0.574219 -6.277344 0.855469 -5.890625 0.855469 -4.472656 L 0.855469 -1.882812 C 0.855469 -0.46875 0.574219 -0.09375 0 -0.121094 L 0 0 L 2.910156 0 L 2.910156 -0.121094 C 2.335938 -0.09375 2.058594 -0.46875 2.058594 -1.882812 L 2.058594 -5.222656 C 2.269531 -5.527344 2.550781 -5.875 2.859375 -6.144531 C 3.59375 -6.769531 4.40625 -6.863281 4.808594 -5.835938 C 5.382812 -4.355469 5.34375 -2.589844 5.941406 -1.121094 C 6.195312 -0.492188 6.558594 0 7.359375 0 C 7.746094 0 8.132812 -0.160156 8.332031 -0.546875 Z M 8.332031 -0.546875 "/></g></g></g><g fill="#000000" fill-opacity="1"><g transform="translate(64.352664, 21.071578)"><g><path d="M 3.804688 -7.25 C 1.816406 -7.25 0.1875 -5.621094 0.1875 -3.621094 C 0.1875 -1.617188 1.816406 0 3.804688 0 C 5.515625 0 6.929688 -1.175781 7.332031 -2.75 L 7.210938 -2.75 C 6.757812 -1.441406 5.742188 -0.667969 4.675781 -0.546875 C 2.964844 -0.359375 1.734375 -1.789062 1.375 -3.3125 C 1.296875 -3.644531 1.269531 -3.964844 1.253906 -4.285156 C 3.070312 -4.285156 4.941406 -4.285156 6.757812 -4.285156 C 6.769531 -5.714844 5.664062 -7.25 3.804688 -7.25 Z M 5.554688 -4.527344 L 1.269531 -4.527344 C 1.320312 -5.609375 1.84375 -6.515625 2.683594 -6.8125 C 3.886719 -7.238281 5.367188 -6.34375 5.554688 -4.527344 Z M 5.554688 -4.527344 "/></g></g></g></svg>